<mxfile host="Electron" modified="2024-09-15T12:56:36.823Z" agent="Mozilla/5.0 (Windows NT 10.0; Win64; x64) AppleWebKit/537.36 (KHTML, like Gecko) draw.io/24.2.5 Chrome/120.0.6099.109 Electron/28.1.0 Safari/537.36" etag="HafK4aBwIhVaicJfwfJD" version="24.2.5" type="device">
  <diagram name="Pagina-1" id="w_FWv7704ixgWOhtn0g2">
    <mxGraphModel dx="683" dy="402" grid="1" gridSize="10" guides="1" tooltips="1" connect="1" arrows="1" fold="1" page="1" pageScale="1" pageWidth="827" pageHeight="1169" math="0" shadow="0">
      <root>
        <mxCell id="0" />
        <mxCell id="1" parent="0" />
        <mxCell id="IeUheEuhMXpv8UoAyUi7-5" style="edgeStyle=orthogonalEdgeStyle;rounded=0;orthogonalLoop=1;jettySize=auto;html=1;" edge="1" parent="1" source="LZbKw-4JUDSRpyTU7rO0-1">
          <mxGeometry relative="1" as="geometry">
            <mxPoint x="320" y="915" as="targetPoint" />
          </mxGeometry>
        </mxCell>
        <mxCell id="LZbKw-4JUDSRpyTU7rO0-1" value="&lt;font style=&quot;font-size: 13px;&quot;&gt;Input&amp;nbsp;&lt;/font&gt;&lt;div style=&quot;font-size: 13px;&quot;&gt;&lt;font style=&quot;font-size: 13px;&quot;&gt;&lt;font style=&quot;font-size: 13px;&quot;&gt;Agen&lt;/font&gt;&lt;span style=&quot;background-color: initial;&quot;&gt;t&lt;/span&gt;&lt;/font&gt;&lt;/div&gt;&lt;div style=&quot;font-size: 13px;&quot;&gt;&lt;font style=&quot;font-size: 13px;&quot;&gt;&lt;span style=&quot;background-color: initial;&quot;&gt;Text&lt;/span&gt;&lt;/font&gt;&lt;/div&gt;" style="triangle;whiteSpace=wrap;html=1;align=left;" parent="1" vertex="1">
          <mxGeometry x="150" y="880" width="80" height="70" as="geometry" />
        </mxCell>
        <mxCell id="IeUheEuhMXpv8UoAyUi7-1" value="" style="pointerEvents=1;verticalLabelPosition=bottom;shadow=0;dashed=0;align=center;html=1;verticalAlign=top;shape=mxgraph.electrical.waveforms.sine_wave;" vertex="1" parent="1">
          <mxGeometry x="80" y="890" width="20" height="50" as="geometry" />
        </mxCell>
        <mxCell id="IeUheEuhMXpv8UoAyUi7-3" style="edgeStyle=orthogonalEdgeStyle;rounded=0;orthogonalLoop=1;jettySize=auto;html=1;entryX=0;entryY=0.5;entryDx=0;entryDy=0;" edge="1" parent="1" source="IeUheEuhMXpv8UoAyUi7-2" target="LZbKw-4JUDSRpyTU7rO0-1">
          <mxGeometry relative="1" as="geometry" />
        </mxCell>
        <mxCell id="IeUheEuhMXpv8UoAyUi7-2" value="Text: &#39;ciao&#39;" style="pointerEvents=1;verticalLabelPosition=bottom;shadow=0;dashed=0;align=center;html=1;verticalAlign=top;shape=mxgraph.electrical.waveforms.sine_wave;" vertex="1" parent="1">
          <mxGeometry x="100" y="890" width="20" height="50" as="geometry" />
        </mxCell>
        <mxCell id="IeUheEuhMXpv8UoAyUi7-8" value="Min UTF-8: &#39;c&#39;,&#39;i&#39;,&#39;a&#39;,&#39;o&#39;" style="text;html=1;align=center;verticalAlign=middle;resizable=0;points=[];autosize=1;strokeColor=none;fillColor=none;" vertex="1" parent="1">
          <mxGeometry x="210" y="890" width="140" height="30" as="geometry" />
        </mxCell>
      </root>
    </mxGraphModel>
  </diagram>
</mxfile>
